<?xml version="1.0" encoding="iso-8859-1"?>
<!-- Generator: Adobe Illustrator 19.0.0, SVG Export Plug-In . SVG Version: 6.00 Build 0)  -->
<svg xmlns="http://www.w3.org/2000/svg" xmlns:xlink="http://www.w3.org/1999/xlink" version="1.1" id="Capa_1" x="0px" y="0px" viewBox="0 0 512.002 512.002" style="enable-background:new 0 0 512.002 512.002;" xml:space="preserve" width="512" height="512">
<g>
	<path d="M94.501,97.5c0,28.948,23.552,52.5,52.5,52.5s52.5-23.552,52.5-52.5c0-15.086-6.405-28.697-16.628-38.282   c9.567-2.59,16.628-11.343,16.628-21.718c0-11.102-8.083-20.352-18.673-22.174C177.827,6.426,169.4,0,159.501,0   c-4.525,0-8.855,1.351-12.5,3.789C143.356,1.351,139.026,0,134.501,0c-9.899,0-18.326,6.426-21.327,15.326   c-10.59,1.822-18.673,11.072-18.673,22.174c0,10.375,7.061,19.128,16.628,21.718C100.906,68.803,94.501,82.414,94.501,97.5z    M184.501,97.5c0,20.678-16.822,37.5-37.5,37.5s-37.5-16.822-37.5-37.5s16.822-37.5,37.5-37.5S184.501,76.822,184.501,97.5z    M117.001,45c-4.136,0-7.5-3.364-7.5-7.5s3.364-7.5,7.5-7.5c0.362,0,0.777,0.04,1.268,0.123c2.19,0.367,4.436-0.255,6.124-1.701   s2.647-3.567,2.619-5.791c-0.001-0.1-0.004-0.199-0.009-0.299c0.09-4.059,3.419-7.332,7.498-7.332c2.516,0,4.854,1.258,6.252,3.364   c1.391,2.093,3.735,3.351,6.248,3.351s4.857-1.258,6.248-3.351c1.398-2.106,3.736-3.364,6.252-3.364c4.08,0,7.41,3.275,7.498,7.335   c-0.003,0.066-0.006,0.134-0.007,0.2c-0.058,2.239,0.89,4.388,2.581,5.855c1.693,1.469,3.952,2.101,6.16,1.732   c0.49-0.083,0.905-0.123,1.268-0.123c4.136,0,7.5,3.364,7.5,7.5s-3.364,7.5-7.5,7.5H117.001z"/>
	<path d="M226.001,185h-28.548c-3.274-11.528-13.889-20-26.452-20h-50c-12.644,0-23.316,8.581-26.515,20.223   C43.751,188.587,3.501,230.928,3.501,282.5c0,4.143,3.357,7.5,7.5,7.5s7.5-3.357,7.5-7.5c0-42.961,33.013-78.34,75-82.144v59.402   c-9.693,11.989-15,26.935-15,42.406V352.5c0,4.143,3.357,7.5,7.5,7.5h22.5v32.5c0,4.136-3.364,7.5-7.5,7.5h-68   c-3.229,0-6.095,2.065-7.115,5.128l-10,30c-1.31,3.93,0.813,8.178,4.743,9.487c0.787,0.262,1.587,0.387,2.373,0.387   c3.14,0,6.066-1.987,7.114-5.13L38.406,415h62.595c12.406,0,22.5-10.094,22.5-22.5V360h45v134.5c0,3.229,2.065,6.095,5.128,7.115   l30,10c0.787,0.262,1.587,0.387,2.373,0.387c3.141,0,6.066-1.987,7.114-5.13c1.31-3.93-0.814-8.178-4.743-9.487l-24.872-8.29V360   h22.5c4.143,0,7.5-3.357,7.5-7.5v-50.335c0-15.472-5.307-30.417-15-42.406V230h27.5c12.406,0,22.5-10.094,22.5-22.5   S238.407,185,226.001,185z M93.501,345v-15.544c8.087-1.165,15.788-4.195,22.5-8.876c8.762,6.11,19.206,9.42,30,9.42   s21.238-3.31,30-9.42c6.712,4.681,14.413,7.711,22.5,8.876V345H93.501z M185.377,267.462c8.463,9.594,13.124,21.918,13.124,34.703   v12.069c-6.465-1.319-12.506-4.322-17.497-8.79c-2.848-2.549-7.158-2.549-10.006,0c-6.883,6.162-15.761,9.556-24.997,9.556   s-18.114-3.394-24.997-9.556c-2.848-2.549-7.158-2.549-10.006,0c-4.991,4.468-11.032,7.471-17.497,8.79v-12.069   c0-12.785,4.661-25.109,13.124-34.703c1.209-1.37,1.876-3.135,1.876-4.962v-70c0-6.893,5.607-12.5,12.5-12.5h50   c6.893,0,12.5,5.607,12.5,12.5V215h-22.5c-4.143,0-7.5,3.357-7.5,7.5s3.357,7.5,7.5,7.5h22.5v32.5   C183.501,264.327,184.168,266.092,185.377,267.462z M226.001,215h-27.5v-15h27.5c4.136,0,7.5,3.364,7.5,7.5   S230.137,215,226.001,215z"/>
	<path d="M486.116,405.128c-1.021-3.063-3.887-5.128-7.115-5.128h-68c-4.136,0-7.5-3.364-7.5-7.5v-63.308   c9.27-9.472,15-22.423,15-36.692v-92.786c50.271-3.842,90-45.976,90-97.214c0-4.143-3.357-7.5-7.5-7.5s-7.5,3.357-7.5,7.5   c0,43.343-33.605,78.961-76.125,82.229c-3.362-11.39-13.91-19.729-26.375-19.729h-50c-12.563,0-23.178,8.472-26.452,20h-28.548   c-12.406,0-22.5,10.094-22.5,22.5s10.094,22.5,22.5,22.5h27.5v62.5c0,14.269,5.73,27.219,15,36.692v159.903l-24.872,8.29   c-3.93,1.31-6.053,5.558-4.743,9.487c1.048,3.143,3.974,5.13,7.114,5.13c0.786,0,1.586-0.125,2.373-0.387l30-10   c3.063-1.021,5.128-3.887,5.128-7.115V339.924c6.824,3.251,14.452,5.076,22.5,5.076s15.676-1.825,22.5-5.076V392.5   c0,12.406,10.094,22.5,22.5,22.5h62.595l8.29,24.872c1.048,3.143,3.974,5.13,7.114,5.13c0.786,0,1.586-0.125,2.373-0.387   c3.929-1.31,6.053-5.558,4.743-9.487L486.116,405.128z M286.001,215c-4.136,0-7.5-3.364-7.5-7.5s3.364-7.5,7.5-7.5h27.5v15H286.001   z M351.001,215h-22.5v-22.5c0-6.893,5.607-12.5,12.5-12.5h50c6.893,0,12.5,5.607,12.5,12.5V285h-75v-55h22.5   c4.143,0,7.5-3.357,7.5-7.5S355.144,215,351.001,215z M329.256,300h73.491c-3.484,17.096-18.635,30-36.745,30   S332.74,317.096,329.256,300z"/>
	<path d="M366.001,150c28.948,0,52.5-23.552,52.5-52.5S394.949,45,366.001,45s-52.5,23.552-52.5,52.5S337.053,150,366.001,150z    M366.001,60c20.678,0,37.5,16.822,37.5,37.5s-16.822,37.5-37.5,37.5s-37.5-16.822-37.5-37.5S345.323,60,366.001,60z"/>
</g>















</svg>
